<?xml version="1.0" standalone="no"?>
<!DOCTYPE svg PUBLIC "-//W3C//DTD SVG 20010904//EN"
 "http://www.w3.org/TR/2001/REC-SVG-20010904/DTD/svg10.dtd">
<svg version="1.0" xmlns="http://www.w3.org/2000/svg"
 width="64.000000pt" height="64.000000pt" viewBox="0 0 64.000000 64.000000"
 preserveAspectRatio="xMidYMid meet">

<g transform="translate(0.000000,64.000000) scale(0.100000,-0.100000)"
fill="#000000" stroke="none">
<path d="M98 563 l-58 -35 0 -188 0 -188 115 -65 115 -66 118 68 117 67 3 62
3 61 54 33 55 33 0 67 0 67 -60 35 -60 35 -60 -35 -60 -35 0 -64 0 -63 -50
-31 -50 -31 0 120 0 119 -61 36 c-33 19 -61 35 -62 34 -1 0 -28 -17 -59 -36z
m109 -8 c23 -14 43 -28 43 -30 0 -2 -20 -15 -45 -28 l-45 -26 -45 26 c-25 13
-45 26 -45 28 0 4 82 55 89 55 2 0 24 -11 48 -25z m340 -50 c23 -14 43 -28 43
-30 0 -2 -20 -15 -45 -28 l-45 -26 -45 26 c-25 13 -45 26 -45 28 0 4 82 55 89
55 2 0 24 -11 48 -25z m-399 -167 l3 -127 54 -31 c55 -31 55 -32 55 -81 0 -27
-2 -49 -4 -49 -3 0 -46 24 -98 54 l-93 54 -3 177 -2 177 42 -24 43 -23 3 -127z
m109 -52 c-3 -6 -23 -21 -46 -34 l-42 -24 3 118 3 118 40 23 40 22 3 -106 c1
-59 1 -112 -1 -117z m231 70 l3 -59 -43 26 c-42 24 -43 27 -46 82 l-3 57 43
-24 c42 -23 43 -24 46 -82z m109 0 c-3 -6 -23 -22 -46 -34 l-42 -24 3 58 c3
57 4 59 43 81 l40 22 3 -46 c2 -25 1 -51 -1 -57z m-161 -45 l46 -28 -34 -20
c-18 -11 -66 -39 -105 -62 l-73 -42 -45 27 c-25 14 -44 29 -41 31 4 4 195 118
204 122 1 1 23 -12 48 -28z m54 -93 l0 -53 -96 -55 c-53 -30 -100 -56 -105
-58 -5 -2 -9 19 -9 46 l0 50 103 60 c56 33 103 61 105 61 1 1 2 -23 2 -51z"/>
</g>
</svg>
